<?xml version="1.0" encoding="UTF-8"?>
<svg width="512" height="512" xmlns="http://www.w3.org/2000/svg" xmlns:svg="http://www.w3.org/2000/svg">
 <g>
  <title>Layer 1</title>
  <path d="m502.341095,232.829971l-223.542999,-222.228731c-12.86795,-12.80176 -33.747849,-12.80176 -46.633041,0l-46.415207,46.152491l58.88028,58.538643c13.686462,-4.59391 29.379395,-1.510635 40.283783,9.332237c10.970123,10.910576 14.04306,26.645851 9.304657,40.299538l56.753998,56.415909c13.733826,-4.706314 29.568298,-1.664063 40.538422,9.256989c15.322968,15.229065 15.322968,39.916656 0,55.158447c-15.334106,15.242401 -40.161743,15.242401 -55.502533,0c-11.524536,-11.468323 -14.375732,-28.304901 -8.53183,-42.42215l-52.933868,-52.6203l0,138.468903c3.732697,1.839172 7.258636,4.288757 10.371155,7.374237c15.322937,15.231812 15.322937,39.916656 0,55.171692c-15.322968,15.226929 -40.168457,15.226929 -55.480255,0c-15.322968,-15.255066 -15.322968,-39.93988 0,-55.171692c3.787262,-3.760773 8.172989,-6.605804 12.852341,-8.510376l0,-139.749573c-4.679352,-1.904541 -9.054489,-4.725739 -12.852341,-8.512543c-11.605331,-11.533691 -14.39801,-28.469971 -8.444901,-42.640991l-58.04895,-57.7183l-153.284064,152.375755c-12.87432,12.812164 -12.87432,33.570206 0,46.371353l223.554053,222.229187c12.870178,12.799072 33.743362,12.799072 46.633072,0l222.49823,-221.199463c12.87851,-12.803223 12.87851,-33.571777 0,-46.371231" fill="#aaaaaa" id="svg_1"/>
 </g>

</svg>
